<?xml version="1.0" standalone="no"?>
<!DOCTYPE svg PUBLIC "-//W3C//DTD SVG 20010904//EN"
 "http://www.w3.org/TR/2001/REC-SVG-20010904/DTD/svg10.dtd">
<svg version="1.0" xmlns="http://www.w3.org/2000/svg"
 width="183.000000pt" height="200.000000pt" viewBox="0 0 183.000000 200.000000"
 preserveAspectRatio="xMidYMid meet">

<g transform="translate(0.000000,200.000000) scale(0.100000,-0.100000)"
fill="#000000" stroke="none">
<path d="M1125 1844 c-85 -16 -225 -85 -315 -153 -189 -143 -390 -404 -521
-676 -230 -476 -205 -866 56 -869 158 -3 361 212 544 574 85 167 128 269 202
480 32 91 58 156 58 145 0 -11 -6 -81 -15 -155 -22 -197 -30 -564 -14 -685 28
-228 95 -337 223 -360 55 -11 136 32 189 99 121 151 177 401 164 726 -14 357
-88 613 -218 755 -62 69 -114 100 -198 119 -75 18 -65 18 -155 0z"/>
</g>
</svg>
